<svg width="402" height="199" viewBox="0 0 402 199" fill="none" xmlns="http://www.w3.org/2000/svg">
<path id="orange_body" d="M261.924 9.5C263.316 9.9298 264.699 10.3519 266.098 10.7664C275.119 13.4449 283.506 17.1826 291.925 21.3118C292.425 21.5574 292.918 21.7953 293.434 22.0486C301.813 26.1623 309.724 30.8441 317.329 36.2319C317.791 36.5542 318.244 36.8766 318.721 37.2143C333.025 47.3759 346.392 59.3258 357.148 73.1177C358.063 74.2382 358.063 74.2382 359.001 75.3895C387.516 110.556 401.704 153.49 401.704 198.219C269.374 198.219 137.044 198.219 0.703552 198.219C0.703552 190.721 0.711363 183.706 1.62592 176.346C1.73536 175.494 1.83698 174.65 1.94641 173.775C6.51141 138.716 20.6441 104.808 42.9141 76.9552C43.4065 76.3182 43.899 75.6888 44.4071 75.0288C53.3026 63.8157 63.5816 53.4852 74.9628 44.7204C75.7523 44.1064 76.5418 43.4847 77.3547 42.8477C94.7236 29.3858 114.156 18.6562 135.152 11.7181C135.895 11.4571 136.637 11.2038 137.411 10.9352C177.878 -3.05623 221.128 -3.14833 261.924 9.5Z" fill="#FC8534"/>
</svg>
