<svg width="218" height="351" viewBox="0 0 218 351" fill="none" xmlns="http://www.w3.org/2000/svg">
<path id="yellow-body" d="M159.363 13.531L159.362 13.5308C131.052 0.280782 103 -6.37213 71.1323 8.36078C70.2724 8.71075 69.4424 9.06071 68.6125 9.41067L68.6123 9.41078C63.0223 11.7208 57.8723 14.2908 52.7823 17.5808C52.3023 17.9008 51.8323 18.2208 51.3623 18.5308C50.8624 17.521 50.8623 17.5208 50.3626 16.5313L50.3623 16.5308L49.3623 20.5308H47.3623C41.3623 24.5008 36.2723 29.2808 31.2223 34.3708C7.09228 59.3008 -0.147726 89.1808 0.00227366 122.941C0.0122737 125.311 0.0222779 127.691 0.0222779 130.061V130.07C0.0222779 135.887 0.0222779 141.704 0.0422669 147.521C0.0622669 155.091 0.0722755 162.651 0.0822755 170.211C0.0822755 182.491 0.102279 194.771 0.132279 207.051C0.162279 218.991 0.182276 230.941 0.192276 242.891V242.892C0.192276 243.652 0.192276 244.391 0.202271 245.131C0.202271 251.061 0.21228 256.981 0.21228 262.901L0.212292 262.911C0.24228 288.811 0.242289 288.819 0.362274 350.531H217.362V125.531C215.902 112.621 215.512 85.9008 211.362 73.5308C203.322 50.1808 184.972 26.0908 162.512 14.9608C161.442 14.4709 160.403 14.0009 159.363 13.531Z" fill="#E3C912"/>
</svg>
